# xmcd
#
# Track frame offsets: 
#        182
#        9992
#        21920
#        35332
#        47565
#        58590
#        69187
#        83307
#        95320
#        107070
#        118507
#        129205
#        140120
#        151105
#        163995
#        182537
#        204705
#        218137
#        230792
#        259647
#        270420
#        282480
#        295970
#        310067
#
# Disc length: 4287 seconds
#
# Revision: 4
# Processed by: cddbd v1.5.1PL2 Copyright (c) Steve Scherf et al.
# Submitted via: ExactAudioCopy v0.95b3
#
DISCID=4910bd18
DTITLE=Wilson Pickett - Wilson Pickett's Greatest Hits
DYEAR=1987
DGENRE=Soul
TTITLE0=Don't Fight It
TTITLE1=In The Midnight Hour
TTITLE2=634-5789
TTITLE3=Ninety-Nine And One- Half (Won't Do)
TTITLE4=Land Of 1000 Dances
TTITLE5=Everybody Needs Somebody To Love
TTITLE6=Mustang Sally
TTITLE7=Soul Dance Number Three
TTITLE8=Funky Broadway
TTITLE9=I'm In Love
TTITLE10=She's Lookin' Good
TTITLE11=I Found A True Love
TTITLE12=I'm A Midnight Mover
TTITLE13=A Man And A Half
TTITLE14=Hey Jude
TTITLE15=You Keep Me Hangin' On
TTITLE16=Sugar Sugar
TTITLE17=Don't Let The Green Grass Fool You
TTITLE18=Get Me Back On Time, Engine Number Nine
TTITLE19=Don't Knock My Love (Part 1)
TTITLE20=Mama Told Me Not To Come
TTITLE21=I Found A Love  (with The Falcons)
TTITLE22=It's Too Late
TTITLE23=If You Need Me
EXTD=Wilson Pickett's Greatest Hits \nSoul Classics\n ID3G:  17 YEAR: 
EXTD=1987
EXTT0=
EXTT1=
EXTT2=
EXTT3=
EXTT4=
EXTT5=
EXTT6=
EXTT7=
EXTT8=
EXTT9=
EXTT10=
EXTT11=
EXTT12=
EXTT13=
EXTT14=
EXTT15=
EXTT16=
EXTT17=
EXTT18=
EXTT19=
EXTT20=
EXTT21=
EXTT22=
EXTT23=
PLAYORDER=
